PathFileType	4	(X/Y/Z)	s02c0302.trc
DataRate	CameraRate	NumFrames	NumMarkers	Units	OrigDataRate	OrigDataStartFrame	OrigNumFrames
200	200	4	51	mm	200	1250	2000
Frame#	Time	racr			lacr			c7			jug			rlel			rdr			llel			ldr			s2			lic			ric			lasi			rasi			rpsi			lpsi			rgt			lgt			rth1			rth2			rth3			rth4			rlfc			rmfc			rsh1			rsh2			rsh3			rsh4			rlmal			rmmal			rcal			rtoe			rmt5			rmt1			lth1			lth2			lth4			lth3			llfc			lmfc			lsh1			lsh2			lsh3			lsh4			llmal			lmmal			lcal			ltoe			lmt5			SBIKE			LBIKE			RBIKE			
		X1	Y1	Z1	X2	Y2	Z2	X3	Y3	Z3	X4	Y4	Z4	X5	Y5	Z5	X6	Y6	Z6	X7	Y7	Z7	X8	Y8	Z8	X9	Y9	Z9	X10	Y10	Z10	X11	Y11	Z11	X12	Y12	Z12	X13	Y13	Z13	X14	Y14	Z14	X15	Y15	Z15	X16	Y16	Z16	X17	Y17	Z17	X18	Y18	Z18	X19	Y19	Z19	X20	Y20	Z20	X21	Y21	Z21	X22	Y22	Z22	X23	Y23	Z23	X24	Y24	Z24	X25	Y25	Z25	X26	Y26	Z26	X27	Y27	Z27	X28	Y28	Z28	X29	Y29	Z29	X30	Y30	Z30	X31	Y31	Z31	X32	Y32	Z32	X33	Y33	Z33	X34	Y34	Z34	X35	Y35	Z35	X36	Y36	Z36	X37	Y37	Z37	X38	Y38	Z38	X39	Y39	Z39	X40	Y40	Z40	X41	Y41	Z41	X42	Y42	Z42	X43	Y43	Z43	X44	Y44	Z44	X45	Y45	Z45	X46	Y46	Z46	X47	Y47	Z47	X48	Y48	Z48	X49	Y49	Z49	X50	Y50	Z50	X51	Y51	Z51	
1250	6.2500	688.286929	1249.813278	-77.556984	761.992898	1202.394461	-412.868675	726.120190	1264.286001	-248.677632	654.941140	1141.304721	-239.070165	606.555129	994.535849	-13.050734	727.494466	852.218488	-112.651712	642.482842	1039.026824	-616.443680	729.087890	856.034137	-527.165552	194.392897	1191.669454	-359.844852	338.566084	1135.652655	-476.711458	293.554044	1190.352955	-188.998602	366.203117	1096.645638	-436.694054	344.772765	1158.134463	-213.003028	208.221841	1222.512987	-320.974845	234.243274	1217.436352	-403.621080	267.314039	1126.504318	-148.660440	257.688445	1055.125084	-499.500912	353.559630	1092.142672	-142.410335	437.846160	1065.833840	-143.595660	497.841198	1012.668158	-114.185036	453.696907	1085.825733	-172.337320	607.833120	910.470300	-142.711468	598.866024	887.014107	-256.613318	564.144812	808.503882	-127.148951	522.818046	731.256847	-142.741636	450.238116	683.570577	-138.810924	534.360267	723.705991	-180.302545	358.555668	594.757954	-143.776608	370.365530	611.917958	-223.614375	268.999686	589.769654	-180.459425	510.664251	439.485186	-202.066351	412.974625	477.873932	-131.529293	435.976344	479.195932	-241.527240	316.847877	931.126511	-513.980442	353.170739	851.857650	-514.030520	386.628155	857.546977	-500.649130	343.438719	763.518577	-516.205248	359.007455	665.652390	-496.590390	358.710491	634.134163	-396.948451	313.798167	573.545839	-518.929672	298.565510	489.760318	-504.386646	239.972114	420.556393	-505.130436	318.720497	483.501680	-469.206610	188.031155	329.290114	-490.871248	201.731212	322.201997	-414.439358	114.037182	333.834794	-448.531821	305.132296	117.085559	-440.407190	215.790793	174.659537	-505.593684	-129.137507	869.880489	-313.914775	32.508947	82.511295	-515.293776	31.996226	83.247300	-115.179684	
1251	6.2550	687.054460	1245.465075	-74.377253	762.980675	1201.438600	-409.459494	726.368203	1262.175543	-245.132140	653.920516	1139.403628	-237.394847	601.819583	991.604123	-13.253670	726.415876	852.513154	-112.381606	646.158256	1040.050621	-616.144385	729.411385	855.796061	-527.041439	195.310319	1194.974334	-361.165493	339.183036	1139.048159	-477.797926	293.353992	1191.198416	-189.798585	366.519764	1099.066354	-438.315811	344.532330	1159.029429	-213.838044	209.539658	1225.753441	-322.720928	234.247604	1222.268642	-403.462254	266.215863	1127.412242	-150.679387	258.134844	1058.293482	-501.079630	352.207694	1091.353227	-142.083657	435.797594	1063.265637	-143.163057	494.412303	1009.180974	-112.799054	452.459536	1083.547347	-170.558937	602.371158	904.721551	-140.050119	595.205992	882.189444	-254.393302	560.461124	802.854336	-125.242529	519.939310	726.001100	-140.506459	448.771800	675.607101	-137.721983	532.624604	716.626009	-178.826676	358.463391	585.868961	-143.342579	370.477323	602.763746	-223.397230	269.954821	576.144364	-179.821722	518.920836	438.835806	-201.465847	419.757386	470.645060	-131.142362	442.370340	474.820332	-240.858055	319.330062	934.174890	-514.818918	357.067883	855.593406	-515.019195	390.355839	862.018839	-501.606576	349.079596	767.291838	-517.297508	365.315292	669.092923	-498.064389	365.401119	637.605815	-398.159195	318.523917	577.616107	-519.949464	300.735407	494.263213	-505.244425	240.205045	426.792940	-506.130115	320.580016	487.542043	-470.004521	184.621260	336.938771	-491.849444	198.618830	329.172378	-415.223674	110.928629	343.255992	-448.682548	295.725080	121.516926	-440.334780	207.806364	181.294573	-505.729913	-128.984091	869.994775	-313.532834	32.524148	82.611180	-515.296354	32.000722	83.208385	-115.093586	
1252	6.2600	685.973936	1241.132778	-71.336179	763.840530	1200.615568	-406.562718	726.354759	1259.882396	-241.980699	653.532554	1137.013331	-235.813219	596.925197	988.765175	-14.006154	725.384621	852.772948	-112.356821	649.621626	1040.899756	-615.871280	729.532869	856.620574	-528.521743	196.183309	1198.670118	-361.867594	339.937622	1142.128909	-478.548086	293.104526	1191.513690	-190.402688	366.925273	1101.441309	-439.792921	344.436908	1159.299558	-214.253963	210.163697	1229.523366	-323.732284	234.998687	1226.483546	-403.626659	265.332162	1127.912838	-152.209988	258.931671	1061.417629	-502.779928	350.538897	1089.582084	-142.058018	433.663550	1059.821432	-142.604740	491.008480	1005.006781	-111.634398	451.064978	1080.108452	-169.564733	597.005351	898.292013	-138.539409	590.892146	876.427326	-252.003688	556.049957	795.957704	-122.994903	517.166783	718.274116	-138.983944	446.953894	666.309568	-136.934540	529.413356	709.573910	-177.559117	359.677711	575.154678	-143.434159	369.489111	593.062154	-223.646531	271.088317	561.630662	-179.760991	526.413026	437.648749	-200.785233	425.167208	464.332075	-130.184560	448.130865	469.740599	-240.049619	322.321477	937.513521	-516.332597	361.467509	859.491135	-515.695147	394.573540	866.531373	-502.268492	355.232044	771.048636	-518.173603	372.228381	672.643568	-499.280538	372.557306	640.943137	-399.283157	323.832530	581.572568	-520.930714	303.281881	498.956904	-505.912924	240.709912	433.489762	-507.053632	322.728614	491.773935	-470.563168	181.252010	344.845552	-492.773233	198.696375	333.705293	-417.750906	107.649052	352.673809	-448.896797	286.859278	126.907136	-440.176184	200.211481	188.182011	-505.701129	-128.802671	870.156536	-313.087796	32.532795	82.893790	-515.196117	32.024192	83.232297	-115.038006	
1253	6.2650	685.034702	1236.929416	-68.620346	764.727017	1199.948530	-403.981780	726.583401	1257.858964	-239.422348	653.084782	1134.975779	-234.678983	592.328478	986.041796	-15.076682	724.339144	852.950233	-112.580917	652.907659	1041.505178	-615.619575	729.785028	856.188471	-528.347166	197.274329	1201.929498	-362.684405	340.761520	1145.122893	-479.266606	292.841967	1191.548425	-190.923535	367.573394	1103.775818	-441.489062	344.338786	1159.164804	-214.509771	209.987548	1233.718083	-324.244987	238.076944	1229.132345	-405.627732	264.387793	1127.732972	-153.674041	260.223460	1064.596278	-504.673299	348.824995	1087.061150	-142.207875	431.519324	1056.162610	-141.662571	487.735936	1000.250197	-110.711772	449.706753	1076.396141	-168.239487	592.193193	891.607328	-136.009322	586.043643	870.072950	-249.553813	550.632012	787.607536	-120.795476	513.122972	708.611551	-139.315925	444.780123	655.878710	-136.635801	526.186628	701.257170	-177.019455	359.733567	564.128050	-143.921941	368.893100	582.224849	-224.106617	271.823909	546.130782	-180.525621	533.099400	435.753732	-200.141949	430.420600	456.931755	-129.719134	453.419806	463.743753	-239.451735	325.746866	940.697251	-517.216969	366.406723	863.439692	-516.222722	399.247763	871.152058	-502.687889	361.886924	774.861812	-518.809015	379.675639	676.300507	-500.243015	380.093971	644.180128	-400.448743	329.503943	585.599267	-521.763556	306.194677	504.021669	-506.683866	241.488294	440.570055	-507.889390	325.095583	496.227608	-470.906218	177.728670	353.261429	-493.696832	195.190896	341.406990	-418.210949	104.041849	362.325493	-449.127655	278.389983	133.117199	-439.982008	192.821868	195.764014	-505.674003	-128.648102	870.314992	-312.615202	32.545865	83.230361	-515.061160	32.049201	83.270483	-114.991543	
